<?xml version="1.0" encoding="iso-8859-1"?>
<!-- Generator: Adobe Illustrator 19.0.0, SVG Export Plug-In . SVG Version: 6.00 Build 0)  -->
<svg version="1.1" id="Capa_1" xmlns="http://www.w3.org/2000/svg" xmlns:xlink="http://www.w3.org/1999/xlink" x="0px" y="0px"
	 viewBox="0 0 512 512" style="enable-background:new 0 0 512 512;" xml:space="preserve">
<g transform="translate(-1)">
	<g transform="translate(1 1)">
		<g>
			<path style="fill:#E3E7F2;" d="M251.585,502.467C519.711,387.557,485.236,141.976,475.38,92.952
				c-0.467-2.273-1.844-4.255-3.811-5.485c-1.967-1.23-4.352-1.601-6.6-1.026C340.058,115.625,278.456,47.23,258.966,19.028
				c-1.587-2.348-4.236-3.755-7.07-3.755s-5.483,1.407-7.07,3.755c-19.558,28.203-81.365,96.623-206.302,67.413
				c-2.248-0.575-4.633-0.204-6.6,1.026c-1.967,1.23-3.344,3.212-3.811,5.485c-9.856,49.024-44.331,294.605,223.795,409.515H251.585
				z"/>
			<path style="fill:#E3E7F2;" d="M251.747,465.005C52.579,372.129,49.456,197.144,57.707,124.781
				c12.953,1.894,26.026,2.861,39.117,2.893c58.286,1.111,114.422-21.998,155.034-63.821
				c40.519,41.817,96.586,64.926,154.803,63.804c13.088-0.032,26.158-0.999,39.108-2.893
				C454.038,197.153,450.915,372.129,251.747,465.005z"/>
		</g>
		<g>
			<path style="fill:#A4C2F7;" d="M251.738,502.381c-4.352-1.877-8.619-3.755-12.8-5.717
				C492.976,379.501,459.44,141.251,449.797,92.952c-0.223-1.138-0.689-2.215-1.365-3.157c5.376-0.853,10.923-2.048,16.555-3.328
				c2.243-0.56,4.618-0.186,6.58,1.036c1.962,1.222,3.345,3.189,3.831,5.449C485.21,142.019,519.685,387.437,251.738,502.381z"/>
			<path style="fill:#A4C2F7;" d="M251.738,465.005c-4.352-2.048-8.619-4.096-12.715-6.229
				c184.32-93.184,189.184-259.328,181.504-331.52c8.458-0.372,16.89-1.198,25.259-2.475
				C454.064,197.144,450.906,372.163,251.738,465.005z"/>
		</g>
		<g>
			<path style="fill:#FFFFFF;" d="M264.709,26.75c-2.193-2.799-4.113-5.41-5.717-7.74c-1.587-2.348-4.236-3.755-7.07-3.755
				c-2.834,0-5.483,1.407-7.07,3.755c-31.189,44.402-81.239,71.79-135.45,74.121C195.29,98.089,243.649,53.485,264.709,26.75z"/>
			<path style="fill:#FFFFFF;" d="M239.109,496.579l-0.162,0.085c4.002,1.877,8.098,3.678,12.254,5.478
				c0.196,0.077,0.367,0.171,0.555,0.247c4.42-1.894,8.644-3.874,12.894-5.837C10.74,379.373,44.02,141.165,53.714,92.952
				c0.231-1.149,0.695-2.238,1.365-3.2c-5.402-0.93-10.889-1.988-16.555-3.311c-2.248-0.575-4.633-0.204-6.6,1.026
				c-1.967,1.23-3.344,3.212-3.811,5.485C18.42,141.174-14.869,379.416,239.109,496.579z"/>
			<polygon style="fill:#FFFFFF;" points="251.909,502.467 251.747,502.39 251.585,502.467 			"/>
		</g>
	</g>
	<g>
		<path style="fill:#FFFFFF;" d="M249.547,511.309c-34.753-14.71-67.572-33.625-97.724-56.32
			c-55.861-42.042-97.53-100.162-119.415-166.562c-10.712-32.959-16.87-67.227-18.304-101.854
			c-1.719-34.708,1.203-69.489,8.687-103.424l16.503,4.369c-7.024,32.265-9.761,65.315-8.141,98.295
			c1.368,33.071,7.245,65.799,17.468,97.28C69.42,346.246,109.056,401.516,162.2,441.472c29.028,21.825,60.621,40.011,94.071,54.153
			L249.547,511.309z"/>
		<g>
			<path style="fill:#428DFF;" d="M14.104,186.573c1.434,34.626,7.592,68.895,18.304,101.854
				C54.292,354.83,95.96,412.953,151.823,454.997c2.304,1.775,4.71,3.413,7.066,5.12c3.804,2.738,9.104,1.896,11.872-1.887
				c2.768-3.782,1.967-9.089-1.794-11.886c-2.253-1.63-4.565-3.191-6.767-4.881c-53.137-39.945-92.772-95.199-113.579-158.336
				c-10.223-31.481-16.099-64.21-17.468-97.28c-1.371-30.181,0.843-60.418,6.596-90.078
				c128.649,29.901,193.946-41.156,214.997-71.023c21.069,29.867,86.468,101.12,215.347,70.929
				c10.035,47.923,44.715,284.518-215.339,398.302c-8.969-4.181-18.057-8.141-26.812-12.715c-4.135-2.149-9.229-0.56-11.409,3.558
				c-2.197,4.219-0.573,9.421,3.635,11.639c9.941,5.18,20.25,9.583,30.379,14.362c1.225,0.722,2.615,1.119,4.036,1.152h0.324
				c1.611,0.005,3.189-0.461,4.54-1.34C557.66,380.928,483.488,86.093,482.729,83.115c-1.205-4.55-5.867-7.264-10.419-6.067
				C326.671,115.43,268.337,19.627,260.956,6.118c-0.227-0.728-0.546-1.425-0.947-2.074c-1.697-2.366-4.431-3.769-7.343-3.769
				c-2.912,0-5.646,1.403-7.343,3.769c-0.482,0.793-0.836,1.657-1.05,2.56C235.842,21.709,177.21,114.961,33.21,77.082
				c-4.552-1.197-9.214,1.517-10.419,6.067C15.303,117.083,12.382,151.865,14.104,186.573z"/>
			<path style="fill:#428DFF;" d="M190.394,463.846c-1.083,0.294-2.104,0.783-3.012,1.442c-2.839,1.955-4.193,5.448-3.413,8.806
				c1.174,4.616,5.788,7.477,10.445,6.477l1.527-0.555c0.52-0.237,1.006-0.544,1.442-0.913c0.456-0.288,0.865-0.645,1.212-1.058
				c0.365-0.438,0.702-0.9,1.007-1.382c1.105-1.983,1.453-4.299,0.981-6.519c-0.29-1.078-0.776-2.094-1.434-2.995
				C197.158,464.39,193.711,463.09,190.394,463.846z"/>
			<path style="fill:#428DFF;" d="M252.738,456.576c-17.538-8.293-34.47-17.811-50.671-28.484c-2.539-1.793-5.852-2.064-8.648-0.707
				c-2.796,1.357-4.634,4.127-4.796,7.231c-0.162,3.104,1.376,6.051,4.015,7.692c18.023,11.881,36.912,22.392,56.508,31.445
				c2.283,1.063,4.919,1.063,7.202,0c206.123-96.009,207.94-276.062,199.142-349.013c-0.275-2.282-1.459-4.356-3.284-5.753
				c-1.825-1.397-4.136-2-6.41-1.671c-12.628,1.858-25.372,2.807-38.135,2.842c-4.713,0-8.533,3.821-8.533,8.533
				s3.821,8.533,8.533,8.533c10.631-0.019,21.253-0.645,31.812-1.877C446.411,208.785,437.596,368.478,252.738,456.576z"/>
			<path style="fill:#428DFF;" d="M97.841,137.207c57.533,1.18,113.204-20.411,154.897-60.075
				c23.494,22.58,51.877,39.441,82.944,49.271c2.922,0.991,6.151,0.328,8.446-1.735c2.295-2.063,3.297-5.204,2.622-8.214
				c-0.675-3.011-2.923-5.422-5.879-6.307c-31.134-9.888-59.297-27.414-81.92-50.978c-3.413-3.328-8.857-3.328-12.271,0
				c-38.967,40.119-92.873,62.209-148.787,60.971c-12.7-0.034-25.382-0.975-37.948-2.816c-2.282-0.329-4.601,0.281-6.427,1.689
				s-3.005,3.495-3.267,5.786c-4.451,38.823-2.81,78.104,4.864,116.42c10.825,55.543,36.873,106.985,75.238,148.582
				c2.073,2.238,5.183,3.199,8.157,2.523c2.974-0.677,5.362-2.888,6.263-5.803c0.901-2.914,0.18-6.088-1.894-8.326
				c-36.265-39.3-60.888-87.91-71.117-140.399c-6.751-33.691-8.608-68.179-5.513-102.4
				C76.738,136.599,87.285,137.203,97.841,137.207z"/>
			<path style="fill:#428DFF;" d="M187.143,321.766c3.332,3.331,8.734,3.331,12.066,0l53.7-53.7l53.7,53.7
				c3.348,3.234,8.671,3.188,11.962-0.104c3.292-3.292,3.338-8.614,0.104-11.962l-53.7-53.7l53.7-53.7
				c3.234-3.348,3.188-8.671-0.104-11.962c-3.292-3.292-8.614-3.338-11.962-0.104l-53.7,53.7l-53.7-53.7
				c-3.348-3.234-8.671-3.188-11.962,0.104c-3.292,3.292-3.338,8.614-0.104,11.962l53.7,53.7l-53.7,53.7
				C183.811,313.033,183.811,318.434,187.143,321.766z"/>
			<path style="fill:#428DFF;" d="M184.642,358.4h68.267c4.713,0,8.533-3.821,8.533-8.533c0-4.713-3.821-8.533-8.533-8.533h-68.267
				c-4.713,0-8.533,3.821-8.533,8.533C176.109,354.579,179.93,358.4,184.642,358.4z"/>
			<path style="fill:#428DFF;" d="M287.042,358.4h34.133c4.713,0,8.533-3.821,8.533-8.533c0-4.713-3.821-8.533-8.533-8.533h-34.133
				c-4.713,0-8.533,3.821-8.533,8.533C278.509,354.579,282.33,358.4,287.042,358.4z"/>
			<path style="fill:#428DFF;" d="M48.109,469.333c4.713,0,8.533-3.82,8.533-8.533v-17.067h17.067c4.713,0,8.533-3.821,8.533-8.533
				s-3.821-8.533-8.533-8.533H56.642V409.6c0-4.713-3.821-8.533-8.533-8.533s-8.533,3.821-8.533,8.533v17.067H22.509
				c-4.713,0-8.533,3.82-8.533,8.533s3.821,8.533,8.533,8.533h17.067V460.8C39.576,465.513,43.396,469.333,48.109,469.333z"/>
			<path style="fill:#428DFF;" d="M466.242,512c4.713,0,8.533-3.82,8.533-8.533V486.4h17.067c4.713,0,8.533-3.82,8.533-8.533
				s-3.821-8.533-8.533-8.533h-17.067v-17.067c0-4.713-3.821-8.533-8.533-8.533c-4.713,0-8.533,3.82-8.533,8.533v17.067h-17.067
				c-4.713,0-8.533,3.821-8.533,8.533s3.821,8.533,8.533,8.533h17.067v17.067C457.709,508.18,461.53,512,466.242,512z"/>
			<path style="fill:#428DFF;" d="M440.642,0c-4.713,0-8.533,3.821-8.533,8.533v8.533h-8.533c-4.713,0-8.533,3.821-8.533,8.533
				s3.82,8.533,8.533,8.533h8.533v8.533c0,4.713,3.821,8.533,8.533,8.533c4.713,0,8.533-3.821,8.533-8.533v-8.533h8.533
				c4.713,0,8.533-3.821,8.533-8.533s-3.82-8.533-8.533-8.533h-8.533V8.533C449.176,3.821,445.355,0,440.642,0z"/>
		</g>
	</g>
</g>
<g>
</g>
<g>
</g>
<g>
</g>
<g>
</g>
<g>
</g>
<g>
</g>
<g>
</g>
<g>
</g>
<g>
</g>
<g>
</g>
<g>
</g>
<g>
</g>
<g>
</g>
<g>
</g>
<g>
</g>
</svg>
